<svg width="35" height="34" viewBox="0 0 35 34" fill="none" xmlns="http://www.w3.org/2000/svg">
<path d="M17.2395 0C7.73365 0 4.63352e-05 7.2247 4.63352e-05 16.1053C4.63352e-05 19.2094 0.945916 22.2163 2.73996 24.8164C2.40035 28.7157 1.49011 31.6105 0.168418 32.9818C-0.00627477 33.1631 -0.049948 33.4405 0.0603843 33.6695C0.158074 33.8741 0.359201 34 0.574693 34C0.601127 34 0.627561 33.9982 0.654569 33.994C0.887302 33.96 6.29358 33.1524 10.2041 30.8094C12.4245 31.7393 14.7897 32.2105 17.2395 32.2105C26.7453 32.2105 34.4789 24.9858 34.4789 16.1053C34.4789 7.2247 26.7453 0 17.2395 0ZM9.1944 18.4912C7.92673 18.4912 6.89581 17.4211 6.89581 16.1053C6.89581 14.7894 7.92673 13.7193 9.1944 13.7193C10.4621 13.7193 11.493 14.7894 11.493 16.1053C11.493 17.4211 10.4621 18.4912 9.1944 18.4912ZM17.2395 18.4912C15.9718 18.4912 14.9409 17.4211 14.9409 16.1053C14.9409 14.7894 15.9718 13.7193 17.2395 13.7193C18.5071 13.7193 19.538 14.7894 19.538 16.1053C19.538 17.4211 18.5071 18.4912 17.2395 18.4912ZM25.2845 18.4912C24.0168 18.4912 22.9859 17.4211 22.9859 16.1053C22.9859 14.7894 24.0168 13.7193 25.2845 13.7193C26.5522 13.7193 27.5831 14.7894 27.5831 16.1053C27.5831 17.4211 26.5522 18.4912 25.2845 18.4912Z" fill="#EA2B01"/>
</svg>
