<svg width="34" height="34" viewBox="0 0 34 34" fill="none" xmlns="http://www.w3.org/2000/svg">
<path d="M33.1108 23.1788C31.992 21.0277 28.1075 18.6952 27.9364 18.5932C27.4372 18.3042 26.9162 18.1512 26.4287 18.1512C25.7039 18.1512 25.1105 18.4889 24.7511 19.1032C24.1828 19.7946 23.478 20.6026 23.3069 20.7279C21.982 21.6408 20.9462 21.5377 19.7996 20.3714L13.3999 13.8626C12.2605 12.7037 12.1558 11.6367 13.0484 10.2971C13.1732 10.1214 13.9671 9.40456 14.6469 8.82655C15.0804 8.56418 15.3779 8.17487 15.5077 7.6966C15.6815 7.06022 15.5534 6.31164 15.1444 5.58119C15.048 5.41346 12.7547 1.46202 10.6397 0.324705C10.2453 0.112202 9.8012 0 9.35491 0C8.62056 0 7.92968 0.291272 7.4104 0.818847L5.99742 2.2565C3.76095 4.53001 2.95083 7.10782 3.5899 9.91683C4.12255 12.2583 5.67482 14.75 8.20436 17.3227L16.3975 25.6557C19.1243 28.429 21.7418 30.0338 24.1995 30.4498C23.6006 31.8693 22.2132 32.8661 20.6002 32.8661C18.8579 32.8661 17.3508 31.7254 16.8505 30.0282L16.3468 28.3202C16.2471 27.983 15.9473 27.7569 15.6013 27.7569C15.2553 27.7569 14.9556 27.983 14.8558 28.3208L13.9292 31.4607L13.0032 28.3208C12.9035 27.9836 12.6037 27.7575 12.2577 27.7575C11.9117 27.7575 11.612 27.9836 11.5123 28.3213L10.5862 31.4607L9.66024 28.3208C9.5605 27.9836 9.26075 27.7575 8.91475 27.7575C8.56875 27.7575 8.26899 27.9836 8.16926 28.3213L7.24325 31.4607L6.31724 28.3208C6.2175 27.9836 5.91775 27.7575 5.57175 27.7575C5.22575 27.7575 4.92599 27.9836 4.82626 28.3213L3.90025 31.4607L2.97423 28.3208C2.8745 27.9842 2.57475 27.7575 2.22874 27.7575C1.88274 27.7575 1.58299 27.9836 1.48326 28.3213L0.0234782 33.2701C-0.0645542 33.5693 0.102596 33.8855 0.397337 33.9756C0.450825 33.9921 0.50487 34 0.557244 34C0.797383 34 1.01858 33.8419 1.09101 33.596L2.22874 29.7386L3.15476 32.8785C3.25449 33.2157 3.55424 33.4418 3.90025 33.4418C4.24625 33.4418 4.546 33.2157 4.64573 32.878L5.57175 29.7386L6.49776 32.8785C6.59749 33.2157 6.89725 33.4418 7.24325 33.4418C7.58925 33.4418 7.889 33.2157 7.98874 32.878L8.91475 29.7386L9.84076 32.8785C9.94049 33.2157 10.2402 33.4418 10.5862 33.4418C10.9322 33.4418 11.232 33.2157 11.3317 32.878L12.2577 29.7386L13.1838 32.8785C13.2835 33.2157 13.5832 33.4418 13.9292 33.4418C14.2753 33.4418 14.575 33.2157 14.6747 32.878L15.6007 29.738L15.7824 30.354C16.4254 32.5351 18.3615 34 20.5996 34C22.796 34 24.6631 32.5584 25.3473 30.5591C25.3874 30.5597 25.4286 30.5637 25.4687 30.5637C25.4682 30.5637 25.4693 30.5637 25.4687 30.5637C27.5419 30.5637 29.4742 29.6678 31.2115 27.9009L32.625 26.4638C33.4836 25.5894 33.6791 24.2696 33.1108 23.1788Z" fill="#EA2B01"/>
</svg>
