<svg width="90" height="120" viewBox="0 0 90 120" fill="none" xmlns="http://www.w3.org/2000/svg">
<path d="M89.15 25.442C88.4031 24.7465 87.193 24.7465 86.4461 25.4439L86.1687 25.7033L85.0938 24.6996C84.7853 24.4107 84.3682 24.2474 83.9298 24.2474C83.5809 24.2474 83.2616 24.3754 82.9838 24.5631C83.2986 26.0591 83.1524 27.6416 82.4852 29.1425C82.4362 29.2522 78.6765 36.8255 78.6765 36.8255C78.7335 36.8303 78.7853 36.8566 78.8434 36.8566C79.3522 36.8566 79.836 36.6692 80.1953 36.3342L89.1542 27.9715C89.5129 27.6364 89.7135 27.1807 89.7135 26.7066C89.7133 26.2333 89.5088 25.7795 89.15 25.442Z" fill="white"/>
<path d="M74.0783 12.9759C73.9512 12.8187 73.9673 12.5975 74.1166 12.4583L75.2923 11.3599C77.0407 9.72855 77.4953 7.23796 76.4274 5.16031L74.7661 1.91756C74.2771 0.965367 73.0524 0.310051 72.2073 0.102968C71.8949 0.0265589 70.5374 -0.341372 69.1035 1.01306C68.5051 1.57858 66.6963 3.2625 66.6963 3.2625C66.5514 3.39804 66.3115 3.38149 66.1891 3.2277L66.175 3.2097C65.8923 2.85369 65.5315 2.55 65.1017 2.36263C63.9757 1.87254 62.7109 2.11345 61.8934 2.87827L53.3133 10.8959C52.7378 11.4336 52.4371 12.178 52.495 12.936C52.5494 13.6943 52.9584 14.3941 53.6055 14.8518L53.6095 14.8548C53.814 15.0008 53.8335 15.2813 53.6517 15.4512L51.3229 17.6269C50.5135 18.3774 50.1422 19.4532 50.334 20.5054C50.5257 21.5539 51.2518 22.4543 52.2785 22.9161L55.7546 24.4694C56.5351 24.8203 57.407 25.0055 58.2709 25.0055C59.8275 25.0055 61.2879 24.4404 62.3936 23.413L63.5716 22.3124C63.7209 22.1727 63.9577 22.1574 64.1263 22.2764L66.0989 23.6686C66.1729 23.7209 66.2633 23.7338 66.3394 23.7812L66.8794 22.7037C68.5327 19.406 72.2948 17.6765 75.9543 18.2202C76.188 18.255 76.4071 18.0941 76.4329 17.8744C76.5574 16.8149 76.306 15.7269 75.5711 14.8204L74.0783 12.9759ZM60.906 20.5677L60.1279 21.295C59.3518 22.0199 58.1333 22.2207 57.14 21.7705L53.828 20.282C53.5657 20.1642 53.506 19.8401 53.7113 19.6471L56.3199 17.1959C56.4689 17.0558 56.706 17.04 56.875 17.1592L60.862 19.9729C61.0668 20.1175 61.0876 20.3981 60.906 20.5677ZM73.0261 9.24113L72.2487 9.96799C72.0671 10.1378 71.7667 10.1184 71.6117 9.92687L68.5991 6.20376C68.472 6.04656 68.4881 5.82561 68.6371 5.68617C68.6371 5.68617 71.1168 3.36787 71.3562 3.13864C71.5549 2.94859 71.7136 3.05128 71.7951 3.19948C71.8616 3.32042 73.5398 6.4561 73.5398 6.4561C74.0192 7.3898 73.8147 8.50844 73.0261 9.24113Z" fill="white"/>
<path d="M47.1452 44.6926L39.981 44.6574L32.7894 44.6218L35.249 50.9959L38.6159 59.7209C39.0564 59.6267 39.5105 59.5666 39.981 59.5666C40.4518 59.5666 40.9056 59.6267 41.3461 59.7209L44.7131 50.9959L47.1452 44.6926Z" fill="white"/>
<path d="M76.8859 21.5717C74.2028 20.3966 71.0313 21.4782 69.7837 23.9727L63.3197 36.8627C62.4392 38.6226 60.9123 40.0373 59.0175 40.8501L57.68 41.4222L50.6513 44.4284L44.1983 61.1539C45.3779 62.2003 46.1232 63.6691 46.1232 65.3046C46.1232 68.4678 43.3696 71.0421 39.981 71.0421C36.5927 71.0421 33.8383 68.4678 33.8383 65.3046C33.8383 63.6689 34.5839 62.2001 35.764 61.1537L29.4394 44.7613L29.311 44.4284L20.9447 40.8503C19.0505 40.0376 17.5228 38.6228 16.6384 36.8591L10.1786 23.9732C8.93096 21.4787 5.75135 20.3971 3.07635 21.5722C0.405787 22.7397 -0.745962 25.7097 0.505825 28.2064L6.96119 41.0883C8.91403 44.9881 12.2984 48.1257 16.4967 49.9206L26.8827 54.3299V114.89C26.8827 117.712 29.3318 120 32.3533 120C35.3745 120 37.8237 117.712 37.8237 114.89V84.3509H42.1472V114.888C42.1472 117.71 44.5966 119.998 47.6176 119.998C50.6349 119.998 53.084 117.712 53.084 114.892V54.3282L63.4661 49.9201C67.6638 48.1252 71.048 44.9874 72.9969 41.0917L79.4564 28.2059C80.7082 25.7092 79.5567 22.7392 76.8859 21.5717Z" fill="white"/>
<path d="M39.9852 41.4421C46.5578 41.4421 51.8866 36.4631 51.8866 30.3222C51.8866 24.1791 46.5578 19.2001 39.9852 19.2001C33.4045 19.2001 28.0759 24.1791 28.0759 30.3222C28.0759 36.4631 33.4045 41.4421 39.9852 41.4421Z" fill="white"/>
<path d="M35.9747 65.3043C35.9747 67.3703 37.7697 69.0462 39.981 69.0462C42.1925 69.0462 43.9869 67.3703 43.9869 65.3043C43.9869 63.2386 42.1925 61.5625 39.981 61.5625C37.7697 61.5623 35.9747 63.2386 35.9747 65.3043Z" fill="white"/>
</svg>
