<svg width="100" height="55" viewBox="0 0 100 55" fill="none" xmlns="http://www.w3.org/2000/svg">
<path d="M8.52849 37.191C9.14422 38.223 10.18 38.9825 11.3765 39.2762C11.7473 39.3675 12.1201 39.4115 12.4909 39.4115C13.2655 39.4115 14.0219 39.2041 14.7014 38.8208L14.705 38.8259C14.9864 38.6906 21.6708 35.4574 26.4223 28.6165C30.3738 22.9237 39.7692 20.9862 44.1609 20.3762L46.8391 24.8419L31.2398 50.8518C30.4835 52.114 30.9311 53.7262 32.2428 54.4541C32.6738 54.6933 33.1453 54.8077 33.611 54.8077C34.5555 54.8077 35.4781 54.333 35.9859 53.4891L50.0031 30.1182L64.0204 53.4891C64.5264 54.3346 65.4492 54.8077 66.3954 54.8077C66.8611 54.8077 67.3324 54.6933 67.7636 54.4541C69.0753 53.7262 69.5229 52.114 68.7666 50.8518L53.1673 24.8454L55.8455 20.378C60.2372 20.9881 69.6326 22.9255 73.5841 28.6183C78.3337 35.4593 85.0182 38.6943 85.2994 38.8277L85.3033 38.8226C85.9845 39.2057 86.7391 39.4133 87.5136 39.4133C87.8844 39.4133 88.2589 39.3694 88.6299 39.278C89.8227 38.9844 90.8624 38.2247 91.476 37.1927L99.4539 23.7183C100.192 22.4771 100.047 21.4768 99.7974 20.8579C99.4044 19.898 98.4729 19.1543 97.1703 18.7623C93.2993 17.5983 88.8033 15.8279 84.7989 11.5065L84.1177 12.0919L84.7515 11.4573C84.2984 11.0388 74.545 2.14452 65.853 1.65748C65.6337 1.12834 65.2465 0.660607 64.693 0.353013C63.3775 -0.373039 61.7042 0.0577386 60.9478 1.31826L50.0014 19.5729L39.0532 1.31826C38.2969 0.0559 36.6199 -0.373039 35.31 0.353013C34.7582 0.658952 34.3691 1.12668 34.15 1.65399C25.4616 2.13385 15.7046 11.0388 15.2495 11.4573L15.8834 12.0919L15.2019 11.5065C11.1975 15.8279 6.70176 17.6003 2.83242 18.7623C1.5299 19.1543 0.596284 19.898 0.205414 20.8579C-0.048479 21.4768 -0.192715 22.4771 0.548906 23.7183L8.52849 37.191ZM81.3716 16.4977L77.8294 22.4032C79.5776 25.5838 81.9287 28.1857 84.4096 30.2569L87.95 24.353C85.5404 22.2274 83.2694 19.6218 81.4867 16.4801L83.646 12.8794C86.1614 15.5325 88.8305 17.2642 91.43 18.4861L87.9333 24.3109C90.5695 26.0778 93.0687 27.2927 94.8005 28.0294L91.4208 33.7362C89.8588 33.1421 87.2832 32.0326 84.3712 30.2708L81.8246 34.5187C79.7201 32.9311 77.1972 30.6507 75.1055 27.6409C75.0232 27.5229 74.9263 27.4194 74.8405 27.305L77.7908 22.3894C77.7763 22.3508 77.7579 22.3155 77.7451 22.2786C76.3075 18.1697 72.6539 15.8139 68.3608 14.4916L70.9112 10.244C75.0323 11.3674 78.8377 13.296 81.3716 16.4977ZM65.6973 3.95147C65.8014 3.77754 65.8799 3.5946 65.9367 3.41001C68.4376 3.58945 71.0829 4.54937 73.5472 5.80806L71.0025 10.0487C67.8586 9.79023 65.3615 8.56482 63.2787 7.98456L65.6973 3.95147ZM60.3703 12.8355C62.6905 13.296 65.0415 14.4003 67.948 14.8838L64.5337 20.5782C61.6726 19.599 58.8794 19.0399 56.8334 18.7305L60.3703 12.8355ZM39.6376 12.8355L43.1743 18.7288C41.1283 19.0383 38.337 19.5974 35.4742 20.5766L32.0581 14.8838C34.9646 14.4003 37.3174 13.296 39.6376 12.8355ZM34.0693 3.41185C34.1278 3.59644 34.2046 3.77754 34.3104 3.95331L36.7292 7.98659C34.6447 8.56849 32.1475 9.7939 29.0035 10.0506L26.4588 5.81008C28.9233 4.54937 31.5703 3.58945 34.0693 3.41185ZM8.57778 18.4878C11.1773 17.2659 13.8444 15.5341 16.36 12.8811L18.5194 16.4817C16.7381 19.6216 14.4657 22.2273 12.0578 24.3547L15.6001 30.2585C18.0792 28.1874 20.4303 25.5854 22.1803 22.4049L18.6363 16.4992C21.172 13.2977 24.9771 11.369 29.1004 10.2455L31.6508 14.4931C27.3596 15.8136 23.7059 18.1693 22.2682 22.28C22.2534 22.3186 22.2334 22.3537 22.2206 22.3907L25.1708 27.3065C25.0868 27.4209 24.9882 27.5262 24.9059 27.6422C22.8161 30.6522 20.2949 32.9325 18.1868 34.5201L15.6385 30.2723C12.7247 32.034 10.1506 33.1434 8.58867 33.7393L5.20916 28.0305C6.94095 27.2957 9.43823 26.0809 12.0761 24.3122L8.57778 18.4878Z" fill="white"/>
</svg>
