<svg width="90" height="81" viewBox="0 0 90 81" fill="none" xmlns="http://www.w3.org/2000/svg">
<path d="M88.0852 61.8593C86.7895 59.9576 85.0007 58.3624 82.8697 57.2087H82.8585L62.6422 46.112C62.8672 45.8084 63.0922 45.5088 63.288 45.2012C65.5219 41.741 66.9177 37.9003 67.3852 33.9275C67.3865 33.9061 67.3865 33.8846 67.3852 33.8632C67.4985 32.8926 67.5556 31.9175 67.5562 30.9417V17.9088C67.5562 17.6313 67.5562 17.3558 67.5337 17.0824C67.5762 16.8527 67.5585 16.6173 67.482 16.3947C67.0519 11.9251 64.7626 7.76195 61.0658 4.72682C57.369 1.6917 52.5334 0.0051383 47.5133 0H42.075C37.0553 0.00555544 32.2203 1.69199 28.5237 4.72661C24.8271 7.76123 22.5374 11.9237 22.1062 16.3927C22.0592 16.5392 22.035 16.6907 22.0342 16.8431C22.0348 16.9233 22.0424 17.0033 22.0567 17.0824C22.0432 17.3558 22.0342 17.6313 22.0342 17.9088V30.9357C22.0348 31.9101 22.0919 32.8839 22.2052 33.8531C22.2052 33.8772 22.2052 33.8994 22.2052 33.9235C22.6731 37.8956 24.0689 41.7356 26.3025 45.1951C26.5275 45.551 26.7885 45.9089 27.0652 46.2648L7.1325 57.2087C2.66625 59.6576 0 63.6829 0 67.9757V78.6803C0 79.1069 0.189643 79.516 0.527208 79.8177C0.864774 80.1193 1.32261 80.2888 1.8 80.2888H88.2C88.6774 80.2888 89.1352 80.1193 89.4728 79.8177C89.8104 79.516 90 79.1069 90 78.6803V67.9736C89.9897 65.8186 89.3281 63.7061 88.0852 61.8593ZM31.0882 45.6495C30.4647 45.0096 29.9096 44.3189 29.43 43.5866C28.1796 41.6512 27.2218 39.5763 26.5815 37.416C31.572 40.1464 37.9732 41.6665 44.8065 41.6665C51.6397 41.6665 58.0343 40.1464 63.0315 37.416C62.3912 39.5763 61.4334 41.6512 60.183 43.5866C59.7364 44.2688 59.2237 44.9147 58.6508 45.5168C56.2748 48.0442 51.9457 50.9998 46.926 51.7217C46.3987 51.7989 45.8668 51.8479 45.333 51.8684C45.1575 51.8684 44.9842 51.8785 44.8132 51.8785C44.1039 51.8771 43.3959 51.8247 42.696 51.7217C38.565 51.1305 34.1212 48.8042 31.0882 45.6495ZM29.0767 8.92924L36.135 15.2346H25.9132C26.3883 12.937 27.4731 10.7747 29.0767 8.92924V8.92924ZM63.9653 18.4516V30.9357C63.9653 31.5932 63.9315 32.2486 63.8753 32.9021C59.2965 36.3845 52.2315 38.4494 44.7997 38.4494C37.368 38.4494 30.3007 36.3845 25.7242 32.9061C25.668 32.2526 25.6342 31.5972 25.6342 30.9397V18.4516H63.9653ZM60.525 8.92723C62.1302 10.7728 63.2159 12.9359 63.6907 15.2346H53.4645L60.525 8.92723ZM44.199 55.0855C44.6017 55.0995 44.9977 55.0995 45.4005 55.0855V77.0296H44.199V55.0855ZM49.0005 54.621C53.0775 53.7122 57.222 51.5226 60.3495 48.6253L77.625 58.1095C76.7859 58.545 76.0105 59.0717 75.3165 59.6778C71.4465 63.0235 69.3698 68.8704 69.1335 77.0718H49.0005V54.621ZM47.5222 3.21702C51.3593 3.21418 55.0757 4.41536 58.023 6.61098L48.375 15.2346H41.2267L31.5765 6.61299C34.5224 4.41634 38.2382 3.21436 42.075 3.21702H47.5222ZM3.6 77.0718V67.9757C3.6 64.9597 5.436 62.0986 8.5365 60.2246C9.2835 60.3332 10.8877 60.7434 12.5167 62.3036C14.5665 64.268 16.9875 68.412 17.2553 77.0718H3.6ZM14.6745 59.6778C13.9808 59.0723 13.2062 58.5456 12.3682 58.1095L29.403 48.762C32.5125 51.589 36.603 53.7263 40.599 54.617V77.0718H20.8575C20.6212 68.8704 18.5445 63.0235 14.6745 59.6778V59.6778ZM86.4 77.0718H72.7447C73.0125 68.414 75.4335 64.268 77.4832 62.3036C79.1122 60.7434 80.712 60.3332 81.459 60.2267C82.8907 61.0773 84.097 62.1972 84.9937 63.508C85.9047 64.856 86.3906 66.399 86.4 67.9736V77.0718ZM36.1598 57.7294H27.5175C27.0401 57.7294 26.5823 57.8989 26.2447 58.2006C25.9071 58.5022 25.7175 58.9114 25.7175 59.338V63.9624C25.7175 64.389 25.9071 64.7982 26.2447 65.0998C26.5823 65.4015 27.0401 65.5709 27.5175 65.5709H36.1598C36.6371 65.5709 37.095 65.4015 37.4325 65.0998C37.7701 64.7982 37.9598 64.389 37.9598 63.9624V59.338C37.9598 58.9114 37.7701 58.5022 37.4325 58.2006C37.095 57.8989 36.6371 57.7294 36.1598 57.7294ZM34.3598 62.3539H29.3175V60.9465H34.3598V62.3539ZM36.1598 68.5567H27.5175C27.0401 68.5567 26.5823 68.7262 26.2447 69.0279C25.9071 69.3295 25.7175 69.7386 25.7175 70.1652V74.7897C25.7175 75.2163 25.9071 75.6254 26.2447 75.9271C26.5823 76.2288 27.0401 76.3982 27.5175 76.3982H36.1598C36.6371 76.3982 37.095 76.2288 37.4325 75.9271C37.7701 75.6254 37.9598 75.2163 37.9598 74.7897V70.1652C37.9606 69.9535 37.9147 69.7437 37.8247 69.5478C37.7346 69.352 37.6022 69.174 37.4349 69.024C37.2677 68.8739 37.069 68.7549 36.8501 68.6737C36.6313 68.5925 36.3967 68.5507 36.1598 68.5507V68.5567ZM34.3598 73.1812H29.3175V71.7738H34.3598V73.1812ZM59.895 57.7395C58.2621 57.7391 56.6657 58.1715 55.3078 58.9819C53.9499 59.7924 52.8914 60.9445 52.2663 62.2925C51.6412 63.6406 51.4776 65.124 51.796 66.5552C52.1145 67.9864 52.9008 69.3011 54.0554 70.3329C55.2101 71.3647 56.6812 72.0673 58.2828 72.3519C59.8843 72.6365 61.5444 72.4902 63.0529 71.9316C64.5615 71.373 65.8507 70.4272 66.7577 69.2137C67.6646 68.0003 68.1484 66.5737 68.148 65.1145C68.148 63.1576 67.2788 61.2807 65.7314 59.896C64.184 58.5114 62.0849 57.7321 59.895 57.7294V57.7395ZM59.895 69.2745C58.9742 69.2749 58.0739 69.0313 57.3081 68.5744C56.5422 68.1176 55.9452 67.468 55.5925 66.7079C55.2398 65.9478 55.1473 65.1113 55.3267 64.3042C55.506 63.4971 55.9492 62.7557 56.6002 62.1737C57.2512 61.5917 58.0806 61.1953 58.9837 61.0346C59.8868 60.8739 60.8229 60.9562 61.6737 61.271C62.5245 61.5858 63.2517 62.119 63.7633 62.8031C64.2749 63.4873 64.548 64.2917 64.548 65.1145C64.5438 66.2154 64.052 67.27 63.18 68.0477C62.3081 68.8254 61.1269 69.2629 59.895 69.2645V69.2745Z" fill="white"/>
</svg>
