<svg width="80" height="56" viewBox="0 0 80 56" fill="none" xmlns="http://www.w3.org/2000/svg">
<path d="M17.9278 1.26296C16.2425 0.448831 14.1252 0 11.9645 0C9.56823 0 7.30726 0.53951 5.60097 1.52095C1.92365 3.6334 0 8.85022 0 12.9113V35.2299C0 39.643 2.63036 45.4479 6.11672 48.7301L7.07577 49.6349C10.6471 52.9975 17.373 55.534 22.7203 55.534H68.6893C75.032 55.534 80 52.2433 80 48.0421C80 44.0341 75.7501 39.6089 71.7506 37.4799L67.3873 35.159C64.5535 33.6498 61.5841 30.06 61.0338 27.4753C60.1233 23.1951 56.8518 18.7572 53.4224 17.1537C51.6953 16.3454 49.6281 15.9001 47.6 15.9001C45.3528 15.9001 43.3176 16.4491 41.8721 17.4481C39.7031 18.9432 37.2219 21.8908 36.1025 24.3024C35.4236 25.7645 33.0679 29.0563 30.7734 31.4443C29.7642 32.4918 28.1959 32.8864 27.3665 32.2384C25.8944 31.0896 24.2482 27.5294 24.2482 24.4827V12.6365C24.2482 8.6016 22.0332 3.24457 17.9278 1.26296ZM22.0791 28.3343L20.7283 28.6289C20.2948 27.2068 20.0648 25.773 20.0648 24.484V22.5531H21.4587V24.484C21.4603 25.6763 21.6735 27.0076 22.0791 28.3343ZM21.2538 10.5209C21.3906 11.2372 21.4588 11.9488 21.4588 12.6368V16.5799H20.0649V12.6368C20.0649 12.0111 20.0022 11.3632 19.8767 10.7081L21.2538 10.5209ZM11.9658 2.35627C13.6498 2.35627 15.2765 2.69434 16.5463 3.30815C17.2197 3.6334 17.8678 4.12585 18.4687 4.77267L17.373 5.50068C16.8823 4.97411 16.3721 4.58059 15.8549 4.33086C14.7913 3.81722 13.4113 3.53447 11.9656 3.53447L11.662 3.53804L11.6188 2.36108L11.9658 2.35627ZM5.1479 5.38524L6.33698 5.99904C5.31248 7.41637 4.5457 9.43803 4.28374 11.4044L2.89815 11.2735C3.18533 9.11178 4.00488 6.96631 5.1479 5.38524ZM2.78795 17.3104H4.18185V23.2835H2.78795V17.3104ZM2.78795 29.2566H4.18185V35.2298H2.78795V29.2566ZM6.91265 45.7636C5.66788 44.2144 4.568 42.2469 3.81391 40.2239L5.14382 39.8705C5.85753 41.7874 6.89472 43.6453 8.06558 45.1016L6.91265 45.7636ZM18.6668 52.6814C16.3625 52.1573 14.0123 51.2547 12.0482 50.1416L12.826 49.1636C14.666 50.2075 16.8685 51.0533 19.0292 51.5446L18.6668 52.6814ZM32.9341 53.1788H25.8666V52.0007H32.9341V53.1788ZM47.0688 53.1788H40.0015V52.0007H47.0688V53.1788ZM61.2039 53.1788H54.1365V52.0007H61.2039V53.1788ZM68.6908 53.1788C68.6893 53.1788 68.6879 53.1788 68.6879 53.1788H68.2724V52.0007H68.6879C68.6879 52.0007 68.6893 52.0007 68.6908 52.0007C70.952 52.0007 73.033 51.415 74.4034 50.3936L75.3247 51.2772C73.7035 52.4848 71.2851 53.1788 68.6908 53.1788ZM71.7004 40.3431C73.6562 41.6685 75.3385 43.4203 76.3171 45.1509L75.0598 45.6586C74.1693 44.0834 72.6274 42.4813 70.8306 41.2629L71.7004 40.3431ZM60.992 32.9736C62.3899 34.6904 64.0697 36.1406 65.7216 37.0572L64.9563 38.0421C63.1566 37.0431 61.3404 35.4808 59.8431 33.6429L60.992 32.9736ZM55.4465 22.076C56.8057 23.7819 57.8316 25.859 58.2623 27.7735L56.8934 27.9939C56.4961 26.229 55.5483 24.3122 54.291 22.7345L55.4465 22.076ZM43.6342 19.2744C44.9474 18.3696 47.2209 18.0373 49.4566 18.4155L49.1836 19.5713C47.37 19.265 45.4937 19.5124 44.5152 20.1887C44.1806 20.4184 43.821 20.7106 43.4431 21.0593L42.4144 20.263C42.8382 19.8717 43.2479 19.5394 43.6342 19.2744ZM42.5902 26.4551C43.2689 24.993 45.0268 22.8759 46.277 22.0136C46.3664 21.9558 46.7997 21.792 47.6 21.792C48.4544 21.792 49.3464 21.9794 50.0463 22.308C51.3176 22.903 53.5563 25.6174 54.1738 28.5202C55.0729 32.7437 59.1561 37.7415 63.6725 40.1461L68.0341 42.467C71.0367 44.0646 73.0274 46.8826 73.0274 48.0444C73.0274 48.4557 71.5344 49.6453 68.6867 49.6453H22.719C19.379 49.6453 14.4932 47.8028 12.2629 45.7033L11.3024 44.7985C8.99402 42.6237 6.96863 38.1539 6.96863 35.231V12.9124C6.96863 9.77733 8.61909 6.90976 9.51823 6.39378C9.94054 6.15107 10.8048 5.89185 11.9646 5.89185C12.9167 5.89185 13.8297 6.06865 14.4696 6.37838C15.5876 6.91802 17.2771 9.6901 17.2771 12.6379V24.4853C17.2771 28.9905 19.5814 34.1849 22.637 36.5682C24.194 37.7829 26.2348 38.4521 28.3871 38.4521C31.3284 38.4521 34.1692 37.2516 36.1808 35.1603C38.7496 32.4896 41.5641 28.6663 42.5902 26.4551ZM38.5516 25.4619L39.8313 25.9296C39.1343 27.2879 37.7808 29.2533 36.207 31.1852L35.0584 30.5172C36.5611 28.6736 37.9008 26.7367 38.5516 25.4619ZM24.9186 33.4732C25.0998 33.6571 25.2853 33.8231 25.4734 33.9704C26.7698 34.98 28.7047 35.1908 30.4875 34.5324L31.0451 35.6127C30.178 35.932 29.2831 36.0946 28.3868 36.0946C26.9175 36.0946 25.5835 35.6599 24.5282 34.8364C24.2969 34.6561 24.0696 34.4523 23.8479 34.2282L24.9186 33.4732Z" fill="white"/>
</svg>
