<svg width="79" height="41" viewBox="0 0 79 41" fill="none" xmlns="http://www.w3.org/2000/svg">
<path fill-rule="evenodd" clip-rule="evenodd" d="M67.9908 25.5855C70.6113 27.8883 73.3772 30.0549 75.7275 32.5899C76.7657 33.7164 77.7487 34.8789 78.5006 36.1863C79.5661 38.0447 78.6011 40.0898 76.7496 40.2008L65.2407 40.1961C62.2724 40.4178 59.9044 39.3422 57.9133 37.5156C56.3199 36.0547 54.8443 34.5 53.3121 32.9899C52.6839 32.3727 52.0265 31.7919 51.241 31.3328C49.6699 30.4149 48.3062 30.696 47.4083 32.1708C46.4939 33.6709 46.2865 35.3319 46.1967 37.0037C46.0734 39.4429 45.2542 40.0842 42.532 40.1959C36.7142 40.4428 31.1928 39.6506 26.0636 37.0091C21.5415 34.6804 18.0349 31.3929 14.9827 27.6711C9.04003 20.424 4.48914 12.4606 0.398977 4.27407C-0.521686 2.42964 0.151615 1.43956 2.41265 1.40452C6.1672 1.33887 9.92124 1.34355 13.6802 1.39985C15.2062 1.41994 16.2164 2.2077 16.8056 3.50523C18.8369 8.00077 21.3225 12.2779 24.4424 16.2424C25.2732 17.2979 26.1204 18.3534 27.3269 19.0963C28.6615 19.9189 29.6777 19.6462 30.3056 18.3081C30.704 17.4596 30.8785 16.5456 30.9683 15.6369C31.2657 12.5103 31.3049 9.38917 30.7832 6.27362C30.4629 4.3292 29.2461 3.07046 27.0904 2.70251C25.9904 2.51491 26.1542 2.1465 26.6868 1.58137C27.6119 0.606711 28.4819 0 30.2163 0H43.2232C45.2709 0.363746 45.7256 1.19169 46.0059 3.04617L46.0171 16.0501C45.9948 16.768 46.4155 18.8984 47.8522 19.3736C49.0021 19.7119 49.76 18.8839 50.4499 18.2277C53.5641 15.2528 55.7867 11.737 57.7724 8.09655C58.6536 6.49579 59.4112 4.83335 60.1455 3.17232C60.6896 1.93974 61.5433 1.33327 63.0858 1.36013L75.6042 1.37018C75.9754 1.37018 76.351 1.37508 76.7105 1.43045C78.8199 1.75402 79.398 2.57075 78.7465 4.42475C77.7199 7.33355 75.7226 9.75759 73.7696 12.1928C71.682 14.7928 69.4492 17.3037 67.379 19.9191C65.4769 22.3074 65.628 23.5112 67.9908 25.5855Z" fill="white"/>
</svg>
