<svg width="60" height="45" viewBox="0 0 60 45" fill="none" xmlns="http://www.w3.org/2000/svg">
<path d="M57.6614 3.81965C55.4955 1.10665 51.4968 0 43.8602 0H16.1392C8.32781 0 4.26135 1.17804 2.10368 4.06644C0 6.88264 0 11.0321 0 16.775V27.7211C0 38.847 2.496 44.4959 16.1392 44.4959H43.8604C50.4828 44.4959 54.1525 43.5193 56.5266 41.1251C58.9612 38.6699 60 34.6612 60 27.7211V16.775C60 10.7186 59.8372 6.54469 57.6614 3.81965ZM38.5202 23.7592L25.9322 30.6918C25.6508 30.8469 25.343 30.9237 25.0357 30.9237C24.6877 30.9237 24.3405 30.825 24.0329 30.6288C23.4538 30.2591 23.1002 29.5976 23.1002 28.8842V15.0634C23.1002 14.3512 23.4528 13.6904 24.0308 13.3205C24.6089 12.9505 25.3279 12.9252 25.9277 13.2536L38.5157 20.1415C39.1562 20.4919 39.5584 21.1886 39.5594 21.9487C39.5601 22.7095 39.1597 23.4072 38.5202 23.7592Z" fill="white"/>
</svg>
