<svg width="39" height="60" viewBox="0 0 39 60" fill="none" xmlns="http://www.w3.org/2000/svg">
<path d="M1.22466 31.956H9.54773V59.0323C9.54773 59.5668 10.0959 60 10.7724 60H24.8844C25.561 60 26.1091 59.5668 26.1091 59.0323V32.0835H35.6772C36.2993 32.0835 36.8227 31.7146 36.8938 31.2263L38.3469 21.2582C38.3869 20.9839 38.2769 20.7093 38.0447 20.5035C37.8123 20.2976 37.4796 20.1797 37.1306 20.1797H26.1096V13.9312C26.1096 12.0476 27.3931 11.0925 29.9247 11.0925C30.2855 11.0925 37.1306 11.0925 37.1306 11.0925C37.8071 11.0925 38.3553 10.6591 38.3553 10.1247V0.974903C38.3553 0.440323 37.8071 0.00716129 37.1306 0.00716129H27.1998C27.1298 0.00445161 26.9742 0 26.745 0C25.0219 0 19.0325 0.26729 14.3014 3.70664C9.05933 7.518 9.78801 12.0815 9.96216 12.8727V20.1795H1.22466C0.54816 20.1795 0 20.6127 0 21.1473V30.9881C0 31.5226 0.54816 31.956 1.22466 31.956Z" fill="white"/>
</svg>
