<svg width="60" height="60" viewBox="0 0 60 60" fill="none" xmlns="http://www.w3.org/2000/svg">
<path d="M7.704 0H52.2996C56.5364 0 60 3.46508 60 7.70222V52.3014C60 56.5373 56.5364 60 52.2996 60H7.704C3.4672 60 0 56.5371 0 52.3014V7.70222C0 3.46508 3.4672 0 7.704 0ZM43.7092 6.66393C42.2216 6.66393 41.0082 7.88223 41.0082 9.36915V15.8325C41.0082 17.32 42.2216 18.5355 43.7092 18.5355H50.4898C51.975 18.5355 53.191 17.32 53.191 15.8325V9.36915C53.191 7.88223 51.975 6.66393 50.4898 6.66393H43.7092ZM53.2168 25.3732H47.9376C48.4382 27.0084 48.7096 28.7327 48.7096 30.5254C48.7096 40.5026 40.3564 48.5949 30.0564 48.5949C19.759 48.5949 11.4056 40.5026 11.4056 30.5254C11.4056 28.7327 11.6796 27.0084 12.1778 25.3732H6.67V50.7217C6.67 52.0344 7.7418 53.1022 9.0532 53.1022H50.8346C52.1472 53.1022 53.2168 52.0344 53.2168 50.7217V25.3732ZM30.0566 18.1947C23.4046 18.1947 18.0086 23.4207 18.0086 29.8732C18.0086 36.3191 23.4046 41.5491 30.0566 41.5491C36.7122 41.5491 42.1084 36.3191 42.1084 29.8732C42.1084 23.4205 36.7122 18.1947 30.0566 18.1947Z" fill="white"/>
</svg>
